<svg width="29" height="28" viewBox="0 0 29 28" fill="none" xmlns="http://www.w3.org/2000/svg">
<path fill-rule="evenodd" clip-rule="evenodd" d="M4.50977 2.33333C4.50977 2.01117 4.77093 1.75 5.0931 1.75H17.9264C18.2486 1.75 18.5098 2.01117 18.5098 2.33333V22.1667C18.5098 22.4888 18.2486 22.75 17.9264 22.75H5.0931C4.77093 22.75 4.50977 22.4888 4.50977 22.1667V2.33333ZM5.67643 2.91667V21.5833H17.3431V2.91667H5.67643Z" fill="#111111"/>
<path fill-rule="evenodd" clip-rule="evenodd" d="M3.37312 21.9822C3.45252 21.744 3.67543 21.5834 3.92652 21.5834H19.0932C19.3443 21.5834 19.5672 21.744 19.6466 21.9822L20.8132 25.4822C20.8725 25.6601 20.8427 25.8557 20.7331 26.0078C20.6234 26.1599 20.4474 26.25 20.2599 26.25H2.75985C2.57234 26.25 2.39626 26.1599 2.28663 26.0078C2.17699 25.8557 2.14716 25.6601 2.20645 25.4822L3.37312 21.9822ZM4.34696 22.75L3.56918 25.0834H19.4505L18.6727 22.75H4.34696Z" fill="#111111"/>
<path fill-rule="evenodd" clip-rule="evenodd" d="M22.2661 6.51692C22.4263 6.40841 22.63 6.38646 22.8097 6.45835L25.7264 7.62502C25.9479 7.7136 26.0931 7.9281 26.0931 8.16663V10.5C26.0931 10.8221 25.8319 11.0833 25.5098 11.0833H22.5931C22.2709 11.0833 22.0098 10.8221 22.0098 10.5V6.99996C22.0098 6.8064 22.1058 6.62544 22.2661 6.51692ZM23.1764 7.86156V9.91663H24.9264V8.56156L23.1764 7.86156Z" fill="#111111"/>
<path fill-rule="evenodd" clip-rule="evenodd" d="M21.1041 5.31152L25.7707 7.64486C25.9683 7.74367 26.0932 7.94566 26.0932 8.16661V16.9166C26.0932 18.5274 24.7873 19.8333 23.1765 19.8333H17.9265V18.6666H23.1765C24.143 18.6666 24.9265 17.8831 24.9265 16.9166V8.52713L20.5823 6.35502L21.1041 5.31152Z" fill="#111111"/>
<path fill-rule="evenodd" clip-rule="evenodd" d="M16.1747 5.87747L15.593 5.83334L15.5489 5.25167C15.7185 5.23881 15.8852 5.30059 16.0055 5.42085C16.1258 5.54112 16.1876 5.70788 16.1747 5.87747ZM14.943 6.48338C14.9127 6.48679 14.8816 6.49034 14.8497 6.49403C14.3638 6.55029 13.7037 6.6391 13.0039 6.76928C12.3017 6.89992 11.573 7.06979 10.9447 7.28512C10.2984 7.50663 9.83259 7.75207 9.58881 7.99585C9.00524 8.57942 8.73454 9.25945 8.73454 9.9167C8.73454 10.574 9.00524 11.254 9.58881 11.8376C10.1724 12.4211 10.8524 12.6918 11.5097 12.6918C12.167 12.6918 12.847 12.4211 13.4306 11.8376C13.6744 11.5938 13.9198 11.128 14.1413 10.4817C14.3566 9.8534 14.5265 9.12463 14.6571 8.42244C14.7873 7.72266 14.8761 7.0626 14.9323 6.57666C14.936 6.54479 14.9396 6.51368 14.943 6.48338ZM15.593 5.83334C15.5489 5.25167 15.549 5.25167 15.5489 5.25167L15.5441 5.25205L15.532 5.253L15.4871 5.25669C15.4481 5.25997 15.3914 5.26492 15.3191 5.27167C15.1746 5.28516 14.9677 5.30591 14.7155 5.3351C14.2119 5.39341 13.5241 5.48583 12.7906 5.6223C12.0594 5.75832 11.2694 5.94053 10.5664 6.18147C9.88147 6.41624 9.20349 6.73126 8.76385 7.17089C7.98059 7.95416 7.56787 8.92404 7.56787 9.9167C7.56787 10.9094 7.98059 11.8793 8.76385 12.6625C9.54712 13.4458 10.517 13.8585 11.5097 13.8585C12.5024 13.8585 13.4723 13.4458 14.2555 12.6625C14.6952 12.2229 15.0102 11.5449 15.245 10.8599C15.4859 10.1569 15.6681 9.36694 15.8041 8.63581C15.9406 7.90226 16.033 7.21443 16.0913 6.71081C16.1205 6.45862 16.1412 6.25171 16.1547 6.10724C16.1615 6.03498 16.1664 5.97828 16.1697 5.93929L16.1734 5.89432L16.1743 5.88228L16.1747 5.87747C16.1747 5.87736 16.1747 5.87747 15.593 5.83334Z" fill="#111111"/>
<path fill-rule="evenodd" clip-rule="evenodd" d="M7.25578 14.9958L9.58911 12.6625L8.76415 11.8375L6.43082 14.1709L7.25578 14.9958Z" fill="#111111"/>
</svg>
