<svg width="28" height="28" viewBox="0 0 28 28" fill="none" xmlns="http://www.w3.org/2000/svg">
<path fill-rule="evenodd" clip-rule="evenodd" d="M13.9998 2.91667C7.8786 2.91667 2.91642 7.87884 2.91642 14C2.91642 20.1212 7.8786 25.0833 13.9998 25.0833C20.1209 25.0833 25.0831 20.1212 25.0831 14C25.0831 7.87884 20.1209 2.91667 13.9998 2.91667ZM1.74976 14C1.74976 7.23451 7.23427 1.75 13.9998 1.75C20.7652 1.75 26.2498 7.23451 26.2498 14C26.2498 20.7655 20.7652 26.25 13.9998 26.25C7.23427 26.25 1.74976 20.7655 1.74976 14Z" fill="#111111"/>
<path fill-rule="evenodd" clip-rule="evenodd" d="M18.039 9.33497L18.0831 9.91663L18.6648 9.96076C18.6777 9.79117 18.6159 9.62441 18.4956 9.50415C18.3753 9.38389 18.2086 9.3221 18.039 9.33497ZM17.4331 10.5667C17.4297 10.597 17.4261 10.6281 17.4224 10.66C17.3662 11.1459 17.2774 11.806 17.1472 12.5057C17.0166 13.2079 16.8467 13.9367 16.6314 14.565C16.4099 15.2113 16.1645 15.6771 15.9207 15.9209C15.3371 16.5044 14.6571 16.7751 13.9998 16.7751C13.3425 16.7751 12.6625 16.5044 12.0789 15.9209C11.4953 15.3373 11.2246 14.6573 11.2246 14C11.2246 13.3428 11.4953 12.6627 12.0789 12.0791C12.3227 11.8354 12.7885 11.5899 13.4348 11.3684C14.0631 11.1531 14.7918 10.9832 15.494 10.8526C16.1938 10.7224 16.8539 10.6336 17.3398 10.5773C17.3717 10.5736 17.4028 10.5701 17.4331 10.5667ZM18.0831 9.91663C18.6648 9.96076 18.6648 9.96065 18.6648 9.96076L18.6644 9.96557L18.6635 9.97761L18.6598 10.0226C18.6565 10.0616 18.6516 10.1183 18.6448 10.1905C18.6313 10.335 18.6106 10.5419 18.5814 10.7941C18.5231 11.2977 18.4307 11.9856 18.2942 12.7191C18.1582 13.4502 17.976 14.2402 17.7351 14.9432C17.5003 15.6282 17.1853 16.3062 16.7456 16.7458C15.9624 17.5291 14.9925 17.9418 13.9998 17.9418C13.0071 17.9418 12.0372 17.5291 11.2539 16.7458C10.4707 15.9625 10.058 14.9927 10.058 14C10.058 13.0073 10.4707 12.0375 11.2539 11.2542C11.6936 10.8146 12.3716 10.4995 13.0565 10.2648C13.7595 10.0238 14.5495 9.84161 15.2806 9.70559C16.0142 9.56912 16.702 9.4767 17.2056 9.4184C17.4578 9.3892 17.6647 9.36846 17.8092 9.35496C17.8815 9.34821 17.9382 9.34327 17.9772 9.33999L18.0221 9.33629L18.0342 9.33534L18.039 9.33497C18.0391 9.33496 18.039 9.33497 18.0831 9.91663Z" fill="#111111"/>
<path fill-rule="evenodd" clip-rule="evenodd" d="M9.74552 19.0791L12.0789 16.7457L11.2539 15.9208L8.92057 18.2541L9.74552 19.0791Z" fill="#111111"/>
</svg>
