<svg class="logo" viewBox="0 0 85 60" fill="none" xmlns="http://www.w3.org/2000/svg">
<path d="M0 38.1239C0 23.3325 15.2438 14.0823 22.8657 11.3062C7.91933 19.6346 7.08278 31.6832 7.08278 35.1256C7.08278 43.1765 14.2771 55.5027 35.4697 55.5027C56.6622 55.5027 73.7092 41.844 77.9106 34.9035H80.9779C63.9123 58.5009 38.6485 60.0001 30.7292 60.0001C22.8099 60.0001 0 56.6131 0 38.1239Z" fill="white"/>
<path d="M76.9627 6.0869C63.1764 -3.50752 42.2924 0.349495 33.5737 3.47731V12.6386C46.2893 6.73097 60.1388 7.80812 65.4741 9.08516C84.0343 14.1045 82.3538 26.7601 79.1935 32.4605H82.2051C89.1206 18.4686 81.5916 9.04814 76.9627 6.0869Z" fill="white"/>
<path d="M14.9541 32.6475V26.5844H19.5217V27.797H16.2591V29.0096H18.8691V30.1356H16.2591V31.4349H19.5217V32.6475H14.9541Z" fill="white"/>
<path d="M19.9556 26.5844H21.3042L22.5222 31.4349H23.2617L24.4797 26.5844H25.8282L24.2622 32.6475H21.5217L19.9556 26.5844Z" fill="white"/>
<path d="M26.3964 30.8286V29.7892H29.659V30.8286H26.3964Z" fill="white"/>
<path d="M30.7061 32.6475V26.5844H35.2736V27.797H32.0111V29.0096H34.6211V30.1356H32.0111V31.4349H35.2736V32.6475H30.7061Z" fill="white"/>
<path d="M35.7076 32.6475L37.2736 29.6592L35.7946 26.5844H37.1866L38.3176 29.0529H38.7526L39.8836 26.5844H41.2757L39.7966 29.6592L41.3627 32.6475H39.9532L38.7526 30.2656H38.3176L37.117 32.6475H35.7076Z" fill="white"/>
<path d="M42.0145 32.6475V26.5844H44.842C45.567 26.5844 46.1528 26.7894 46.5994 27.1993C47.0518 27.6036 47.2781 28.1059 47.2781 28.7065C47.2781 29.307 47.0518 29.8123 46.5994 30.2223C46.1528 30.6265 45.567 30.8286 44.842 30.8286H43.3195V32.6475H42.0145ZM43.3195 29.6159H44.7985C45.1581 29.6159 45.4365 29.5322 45.6337 29.3647C45.8309 29.1973 45.9295 28.9779 45.9295 28.7065C45.9295 28.4351 45.8309 28.2156 45.6337 28.0482C45.4365 27.8807 45.1581 27.797 44.7985 27.797H43.3195V29.6159Z" fill="white"/>
<path d="M48.1063 32.6475V26.5844H50.9773C51.7023 26.5844 52.2823 26.7807 52.7173 27.1734C53.1523 27.5602 53.3698 28.0424 53.3698 28.6198C53.3698 29.0703 53.2422 29.4543 52.987 29.7718C52.7318 30.0894 52.3954 30.3262 51.9778 30.4821L53.3698 32.6475H51.8908L50.6293 30.6553H49.4113V32.6475H48.1063ZM49.4113 29.4427H50.9338C51.2934 29.4427 51.5631 29.3705 51.7429 29.2262C51.9285 29.076 52.0213 28.8739 52.0213 28.6198C52.0213 28.3658 51.9285 28.1666 51.7429 28.0222C51.5631 27.8721 51.2934 27.797 50.9338 27.797H49.4113V29.4427Z" fill="white"/>
<path d="M54.2405 32.6475V26.5844H58.8081V27.797H55.5455V29.0096H58.1556V30.1356H55.5455V31.4349H58.8081V32.6475H54.2405Z" fill="white"/>
<path d="M59.3726 30.7419H60.7211C60.7733 30.9152 60.8574 31.0682 60.9734 31.201C61.2286 31.5013 61.6085 31.6514 62.1131 31.6514C62.8671 31.6514 63.2441 31.4204 63.2441 30.9585C63.2441 30.843 63.2035 30.7391 63.1223 30.6467C63.0469 30.5543 62.9251 30.4734 62.7569 30.4041C62.5945 30.3349 62.435 30.28 62.2784 30.2396C62.1276 30.1934 61.9304 30.1385 61.6868 30.075C61.652 30.0692 61.623 30.0635 61.5998 30.0577C61.5824 30.0519 61.5563 30.0461 61.5215 30.0404C61.4925 30.0288 61.4664 30.0201 61.4432 30.0144C60.2368 29.7257 59.6336 29.1453 59.6336 28.2734C59.6336 27.7537 59.8453 27.3148 60.2687 26.9568C60.6979 26.593 61.2692 26.4111 61.9826 26.4111C62.9106 26.4111 63.6124 26.723 64.088 27.3466C64.2852 27.6238 64.4244 27.9327 64.5056 28.2734H63.1571C63.1223 28.1521 63.0556 28.0366 62.957 27.9269C62.7366 27.6959 62.4118 27.5805 61.9826 27.5805C61.652 27.5805 61.4026 27.644 61.2344 27.771C61.0662 27.8923 60.9821 28.0453 60.9821 28.2301C60.9821 28.565 61.3649 28.8191 62.1305 28.9923C62.3277 29.0385 62.4495 29.0674 62.4959 29.0789C62.5481 29.0905 62.667 29.1222 62.8526 29.1742C63.044 29.2262 63.1716 29.2695 63.2354 29.3041C63.305 29.333 63.4181 29.3821 63.5747 29.4514C63.7371 29.5149 63.8502 29.5755 63.914 29.6333C63.9836 29.691 64.0706 29.769 64.175 29.8671C64.2852 29.9595 64.3635 30.0548 64.4099 30.153C64.4563 30.2511 64.4969 30.3666 64.5317 30.4994C64.5723 30.6265 64.5926 30.765 64.5926 30.9152C64.5926 31.4522 64.3751 31.9055 63.9401 32.2751C63.5051 32.6388 62.8961 32.8207 62.1131 32.8207C61.0807 32.8207 60.3238 32.4743 59.8424 31.7813C59.6162 31.4811 59.4596 31.1346 59.3726 30.7419Z" fill="white"/>
<path d="M65.116 30.7419H66.4645C66.5167 30.9152 66.6008 31.0682 66.7168 31.201C66.972 31.5013 67.3519 31.6514 67.8565 31.6514C68.6105 31.6514 68.9875 31.4204 68.9875 30.9585C68.9875 30.843 68.9469 30.7391 68.8657 30.6467C68.7903 30.5543 68.6685 30.4734 68.5003 30.4041C68.3379 30.3349 68.1784 30.28 68.0218 30.2396C67.871 30.1934 67.6738 30.1385 67.4302 30.075C67.3954 30.0692 67.3664 30.0635 67.3432 30.0577C67.3258 30.0519 67.2997 30.0461 67.2649 30.0404C67.2359 30.0288 67.2098 30.0201 67.1866 30.0144C65.9802 29.7257 65.377 29.1453 65.377 28.2734C65.377 27.7537 65.5887 27.3148 66.0121 26.9568C66.4413 26.593 67.0126 26.4111 67.726 26.4111C68.654 26.4111 69.3558 26.723 69.8314 27.3466C70.0286 27.6238 70.1679 27.9327 70.2491 28.2734H68.9005C68.8657 28.1521 68.799 28.0366 68.7004 27.9269C68.48 27.6959 68.1552 27.5805 67.726 27.5805C67.3954 27.5805 67.146 27.644 66.9778 27.771C66.8096 27.8923 66.7255 28.0453 66.7255 28.2301C66.7255 28.565 67.1083 28.8191 67.8739 28.9923C68.0711 29.0385 68.1929 29.0674 68.2393 29.0789C68.2915 29.0905 68.4104 29.1222 68.596 29.1742C68.7874 29.2262 68.915 29.2695 68.9788 29.3041C69.0484 29.333 69.1615 29.3821 69.3181 29.4514C69.4805 29.5149 69.5936 29.5755 69.6574 29.6333C69.727 29.691 69.814 29.769 69.9184 29.8671C70.0286 29.9595 70.1069 30.0548 70.1534 30.153C70.1997 30.2511 70.2404 30.3666 70.2752 30.4994C70.3158 30.6265 70.3361 30.765 70.3361 30.9152C70.3361 31.4522 70.1185 31.9055 69.6835 32.2751C69.2485 32.6388 68.6395 32.8207 67.8565 32.8207C66.8241 32.8207 66.0672 32.4743 65.5858 31.7813C65.3596 31.4811 65.203 31.1346 65.116 30.7419Z" fill="white"/>
</svg>
