<svg class="advantage_svg" viewBox="0 0 28 28" fill="none" xmlns="http://www.w3.org/2000/svg">
<path fill-rule="evenodd" clip-rule="evenodd" d="M5.24284 14.0017C5.24284 16.7971 6.62008 19.2827 8.75817 20.8431C9.12703 21.1123 9.51837 21.3539 9.92897 21.5645L9.39645 22.6025C8.93149 22.364 8.48825 22.0905 8.07039 21.7855C5.64995 20.019 4.07617 17.1921 4.07617 14.0017C4.07617 8.62831 8.53214 4.2956 13.9998 4.2956V5.46227C9.15042 5.46227 5.24284 9.2984 5.24284 14.0017ZM13.9998 22.5412C18.8491 22.5412 22.7567 18.7051 22.7567 14.0017C22.7567 10.7328 20.872 7.88535 18.0909 6.44948L18.6262 5.41283C21.7703 7.03613 23.9233 10.2691 23.9233 14.0017C23.9233 19.3752 19.4674 23.7079 13.9998 23.7079V22.5412Z" fill="#111111"/>
<path fill-rule="evenodd" clip-rule="evenodd" d="M13.7643 4.69984L10.4697 2.84201L11.0428 1.82579L14.8559 3.97605C14.9925 4.05306 15.0923 4.18179 15.1329 4.33322C15.1734 4.48466 15.1513 4.64604 15.0716 4.781L12.87 8.50537L11.8657 7.9117L13.7643 4.69984Z" fill="#111111"/>
<path fill-rule="evenodd" clip-rule="evenodd" d="M12.8665 23.6682C12.826 23.5168 12.8481 23.3554 12.9279 23.2204L15.1294 19.4961L16.1337 20.0897L14.2351 23.3016L17.5297 25.1594L16.9566 26.1757L13.1435 24.0254C13.0069 23.9484 12.9071 23.8197 12.8665 23.6682Z" fill="#111111"/>
<path fill-rule="evenodd" clip-rule="evenodd" d="M11.1599 13.7105L13.4932 9.6272L14.5062 10.206L12.6715 13.4166H16.333C16.5409 13.4166 16.7332 13.5273 16.8375 13.7072C16.9419 13.887 16.9427 14.1088 16.8395 14.2894L14.5062 18.3727L13.4932 17.7939L15.3278 14.5833H11.6663C11.4584 14.5833 11.2662 14.4726 11.1618 14.2927C11.0574 14.1129 11.0567 13.8911 11.1599 13.7105Z" fill="#111111"/>
</svg>
